<svg width="45" height="45" viewBox="0 0 45 45" xmlns="http://www.w3.org/2000/svg"><title>icon-error-mark</title><desc>Created with Sketch.</desc><g fill="#fff"><path d="M22.533 4.81c-9.844.168-17.893 8.304-17.723 18 .17 9.847 7.96 17.554 17.656 17.388 9.847-.172 17.892-8.306 17.724-18.004-.17-9.846-7.96-17.554-17.657-17.384zm0 39.3c-11.878.203-21.43-9.245-21.636-21.233C.69 11 10.48 1.102 22.467.897c11.876-.207 21.43 9.243 21.636 21.23.205 11.88-9.58 21.774-21.57 21.983zM24.457 25.18V12.675c0-1.08-.876-1.957-1.957-1.957-1.08 0-1.957.876-1.957 1.957V25.18c0 1.08.876 1.956 1.957 1.956 1.08 0 1.957-.876 1.957-1.956z" id="Shape" fill-rule="nonzero"/><path d="M24.97 31.478c0 1.337-1.087 2.423-2.424 2.423s-2.422-1.085-2.422-2.422c0-1.337 1.085-2.422 2.422-2.422 1.337 0 2.423 1.085 2.423 2.422z"/></g></svg>