<svg width="45" height="45" viewBox="0 0 45 45" xmlns="http://www.w3.org/2000/svg"><title>icon-settings</title><desc>Created with Sketch.</desc><path d="M31.705 22.5v11.25c0 1.13-.916 2.045-2.046 2.045s-2.046-.915-2.046-2.045V22.5c-2.823 0-5.114-2.294-5.114-5.114v-4.09c0-2.823 2.294-5.114 5.114-5.114h4.09c2.823 0 5.114 2.294 5.114 5.113v4.09c0 2.824-2.294 5.115-5.113 5.115zm1129.68 76c2.824 0 5.115 2.294 5.115 5.114v4.09c0 2.823-2.294 5.114-5.114 5.114h-4.09c-2.823 0-5.114-2.294-5.114-5.113v-4.09c0-2.824 2.294-5.115 5.113-5.115V87.25c0-1.13.916-2.045 2.046-2.045s2.046.915 2.046 2.045V98.5zM1144 81.12c0-1.358.538-2.66 1.5-3.62.96-.962 2.262-1.5 3.62-1.5h34.76c1.358 0 2.66.538 3.62 1.5.962.96 1.5 2.262 1.5 3.62v34.76c0 1.358-.538 2.66-1.5 3.62-.96.962-2.262 1.5-3.62 1.5h-34.76c-1.358 0-2.66-.538-3.62-1.5-.962-.96-1.5-2.262-1.5-3.62V81.12zm4.09 0v34.76c0 .57.46 1.03 1.03 1.03h34.76c.57 0 1.03-.46 1.03-1.03V81.12c0-.57-.46-1.03-1.03-1.03h-34.76c-.57 0-1.03.46-1.03 1.03zm8.183 22.494v4.09c0 .563.46 1.023 1.022 1.023h4.09c.564 0 1.024-.46 1.024-1.022v-4.09c0-.564-.46-1.024-1.024-1.024h-4.09c-.563 0-1.023.46-1.023 1.024zm14.318-14.32v4.092c0 .563.46 1.023 1.024 1.023h4.09c.563 0 1.023-.46 1.023-1.024v-4.09c0-.563-.46-1.023-1.022-1.023h-4.09c-.564 0-1.024.46-1.024 1.022z" fill-rule="nonzero" fill="#fff"/></svg>