<svg width="46" height="45" viewBox="0 0 46 45" xmlns="http://www.w3.org/2000/svg"><title>icon-split</title><desc>Created with Sketch.</desc><path d="M25.094 18.014l12.44 4.563c2.433.895 4.29 3.515 4.29 6.057v4.443c2.88.996 4.607 3.878 4.09 6.824-.516 2.947-3.127 5.1-6.182 5.1-3.056 0-5.667-2.153-6.183-5.1-.518-2.945 1.21-5.827 4.09-6.823v-4.443c0-.837-.774-1.932-1.576-2.226l-10.97-4.025v10.694c2.88.996 4.608 3.878 4.092 6.824-.517 2.947-3.128 5.1-6.183 5.1-3.056 0-5.666-2.153-6.183-5.1-.517-2.945 1.21-5.827 4.092-6.823V22.383l-10.97 4.025c-.805.295-1.577 1.385-1.577 2.226v4.443c2.88.996 4.61 3.878 4.092 6.824C11.94 42.848 9.33 45 6.274 45 3.22 45 .608 42.847.09 39.9c-.516-2.945 1.212-5.827 4.093-6.823v-4.443c0-2.546 1.854-5.163 4.29-6.057l12.44-4.563v-6.09c-2.882-.997-4.61-3.88-4.093-6.825.517-2.947 3.127-5.1 6.183-5.1 3.055 0 5.666 2.153 6.183 5.1.516 2.945-1.21 5.827-4.092 6.823v6.09zm819.91 66.166c1.154 0 2.09-.915 2.09-2.045s-.936-2.046-2.09-2.046c-1.156 0-2.092.915-2.092 2.045s.936 2.045 2.09 2.045zm0 32.73c1.154 0 2.09-.915 2.09-2.045s-.936-2.045-2.09-2.045c-1.156 0-2.092.915-2.092 2.045s.936 2.046 2.09 2.046zm16.728 0c1.155 0 2.09-.915 2.09-2.045s-.935-2.045-2.09-2.045c-1.155 0-2.09.915-2.09 2.045s.935 2.046 2.09 2.046zm-33.458 0c1.155 0 2.09-.915 2.09-2.045s-.935-2.045-2.09-2.045c-1.155 0-2.09.915-2.09 2.045s.935 2.046 2.09 2.046z" fill-rule="nonzero" fill="#fff"/></svg>