<svg width="45" height="45" viewBox="0 0 45 45" xmlns="http://www.w3.org/2000/svg"><title>icon-note</title><desc>Created with Sketch.</desc><path d="M0 8.988c0-2.48 1.973-4.49 4.407-4.49H16.54c.61 0 1.462.365 1.888.8l7.257 7.4c.432.443.783 1.295.783 1.92V40.5c0 2.483-1.968 4.496-4.4 4.496H4.4c-2.43 0-4.4-2.01-4.4-4.49V8.99zm952.073 82.76v-.37L945.8 85h-.36v6.75h6.633zm-.002 4.5h-8.83c-1.22 0-2.212-1-2.212-2.25V84.998h-6.62l.003 31.505c0-.005 17.658-.01 17.658-.01-.005 0 0-12.945.003-20.248zM965.287 76h4.42c2.434 0 4.407 2.012 4.407 4.504v31.49l-4.35 7.408c-1.25 2.134-3.286 2.127-4.535 0l-4.35-7.407v-31.49c0-2.488 1.982-4.505 4.408-4.505zm4.416 28.12V87.254c0-.007-4.416-.005-4.416-.005.006 0 .007 9.923.006 16.873h4.41zm0 4.5h-4.41v2.13l2.204 3.74 2.206-3.713v-2.157z" fill-rule="nonzero" fill="#fff"/></svg>