<svg width="27" height="45" viewBox="0 0 27 45" xmlns="http://www.w3.org/2000/svg"><title>icon-thunder</title><desc>Created with Sketch.</desc><path d="M9.685 26.736l-8.4-3.36c-.63-.252-1.092-.798-1.237-1.46-.146-.66.046-1.352.512-1.844L18.96.652c1.517-1.603 4.146.005 3.41 2.085l-5.48 15.526 8.4 3.36c.63.253 1.093.8 1.238 1.46.145.662-.047 1.353-.512 1.845l-18.4 19.42c-1.517 1.603-4.146-.005-3.41-2.085l5.48-15.526zM2431.6 172.698l7.425 2.97c1.018.408 1.534 1.545 1.17 2.58l-2.935 8.31 9.717-10.256-7.426-2.97c-1.017-.408-1.533-1.545-1.168-2.58l2.934-8.31-9.717 10.256z" fill-rule="nonzero" fill="#fff"/></svg>