<svg width="14" height="14" viewBox="0 0 14 14" xmlns="http://www.w3.org/2000/svg"><desc>Created with Sketch.</desc><path d="M9.825 8.794l3.962 3.962c.284.283.285.742-.002 1.03-.285.284-.746.286-1.03.002L8.793 9.826c-.92.703-2.07 1.12-3.32 1.12C2.45 10.947 0 8.497 0 5.475 0 2.45 2.45 0 5.473 0c3.023 0 5.474 2.45 5.474 5.474 0 1.248-.418 2.4-1.122 3.32zm-4.352.693c2.217 0 4.014-1.797 4.014-4.013 0-2.217-1.797-4.014-4.014-4.014-2.216 0-4.013 1.797-4.013 4.014 0 2.216 1.797 4.013 4.013 4.013z" fill-rule="nonzero" fill="#fff"/></svg>