<svg width="53" height="45" viewBox="0 0 53 45" xmlns="http://www.w3.org/2000/svg"><title>icon-random</title><desc>Created with Sketch.</desc><path d="M40.754 12.5c-2.71 0-9.48 6.5-14.445 11.188-7.48 7-14.574 13.812-20.25 13.812H2.58C1.16 37.5 0 36.375 0 35s1.16-2.5 2.58-2.5h3.48c3.613 0 10.835-7 16.638-12.438C29.792 13.438 35.918 7.5 40.754 7.5h3.353L40.56 4.187c-1.03-1-1.03-2.437 0-3.437 1.032-1 2.644-1 3.676 0l7.93 7.688c.517.5.775 1.124.775 1.75 0 .687-.257 1.312-.773 1.75l-7.996 7.687c-.514.5-1.16.688-1.804.688-.645 0-1.29-.25-1.806-.75-1.03-1-1.03-2.625 0-3.563l3.547-3.5h-3.353zm507.417 88.875c-1.03-1-2.642-1-3.674 0s-1.032 2.625 0 3.625l3.546 3.5h-3.353c-2.13 0-5.675-3.063-9.157-6.188-1.032-.937-2.644-.937-3.676.063-.967 1-.903 2.688.13 3.625 5.416 4.813 9.027 7.5 12.767 7.5h3.353l-3.547 3.313c-1.03 1-1.03 2.5 0 3.5.516.5 1.16.687 1.806.687.645 0 1.29-.25 1.805-.75l7.933-7.688c.516-.5.774-1.124.774-1.75 0-.687-.258-1.312-.774-1.75l-7.932-7.687zM506.58 88.5h3.48c2.71 0 6.772 3.375 9.996 6.188.516.437 1.097.687 1.742.687.71 0 1.418-.25 1.934-.813.967-1 .903-2.687-.193-3.624-5.03-4.438-9.287-7.5-13.48-7.5h-3.48c-1.42 0-2.58 1.124-2.58 2.5 0 1.374 1.16 2.562 2.58 2.562z" fill-rule="nonzero" fill="#fff"/></svg>