<svg width="45" height="45" viewBox="0 0 45 45" xmlns="http://www.w3.org/2000/svg"><title>icon-check-mark</title><desc>Created with Sketch.</desc><path d="M22.5 45C34.926 45 45 34.926 45 22.5S34.926 0 22.5 0 0 10.074 0 22.5 10.074 45 22.5 45zm0-4.5c-9.94 0-18-8.06-18-18s8.06-18 18-18 18 8.06 18 18-8.06 18-18 18zm-4.966-9.66c.88.88 2.303.88 3.182 0L33.09 18.467c.88-.88.88-2.303 0-3.182-.878-.88-2.302-.88-3.18 0L19.124 26.1l-5.16-5.19c-.878-.88-2.302-.88-3.18 0-.88.878-.88 2.302 0 3.18l6.75 6.75z" fill-rule="nonzero" fill="#fff"/></svg>