<svg width="45" height="45" viewBox="0 0 45 45" xmlns="http://www.w3.org/2000/svg"><title>icon-chart</title><desc>Created with Sketch.</desc><path d="M36.818 5.12v34.76c0 .572.458 1.03 1.025 1.03h2.04c.57 0 1.026-.46 1.026-1.03V5.12c0-.572-.46-1.03-1.026-1.03h-2.04c-.57 0-1.026.46-1.026 1.03zm1032.91 76c-.002-1.357.536-2.66 1.496-3.62s2.26-1.5 3.62-1.5h2.04c1.358 0 2.66.54 3.62 1.5s1.497 2.263 1.496 3.62v34.76c.002 1.357-.537 2.66-1.496 3.62-.96.96-2.262 1.5-3.62 1.5h-2.04c-1.36 0-2.66-.54-3.62-1.5s-1.498-2.263-1.497-3.62V81.12zM1037 93.384c0-1.356.54-2.657 1.498-3.616.96-.958 2.26-1.496 3.618-1.494h2.04c2.823 0 5.112 2.287 5.117 5.11v22.507c0 1.357-.54 2.657-1.5 3.616-.96.958-2.26 1.496-3.616 1.494h-2.04c-2.824-.002-5.112-2.287-5.117-5.11V93.382zm4.09 0v22.507c0 .557.463 1.02 1.026 1.02h2.04c.272 0 .533-.106.725-.297.194-.19.302-.45.302-.723V93.382c0-.556-.462-1.018-1.025-1.018h-2.04c-.273-.002-.533.105-.726.296-.19.19-.3.45-.3.722zm12.274 12.285c-.002-1.358.536-2.66 1.495-3.622.96-.96 2.26-1.5 3.62-1.5h2.04c1.36 0 2.662.538 3.622 1.5.96.96 1.497 2.265 1.494 3.623v10.206c.003 1.358-.535 2.662-1.495 3.623-.96.96-2.26 1.5-3.62 1.5h-2.04c-1.36 0-2.662-.54-3.622-1.5-.96-.962-1.497-2.265-1.494-3.624V105.667zm4.09 0v10.21c-.002.272.105.535.297.73.194.193.456.302.73.3h2.04c.568 0 1.025-.458 1.025-1.032V105.67c.003-.274-.103-.537-.296-.732-.193-.194-.456-.302-.73-.302h-2.04c-.568 0-1.025.46-1.025 1.033v-.002z" fill-rule="nonzero" fill="#fff"/></svg>