<?xml version="1.0" encoding="UTF-8" standalone="no"?>
<svg width="45px" height="45px" viewBox="0 0 45 45" version="1.1" xmlns="http://www.w3.org/2000/svg" xmlns:xlink="http://www.w3.org/1999/xlink">
    <!-- Generator: Sketch 47.1 (45422) - http://www.bohemiancoding.com/sketch -->
    <title>icon-chart</title>
    <desc>Created with Sketch.</desc>
    <defs></defs>
    <g id="Design" stroke="none" stroke-width="1" fill="none" fill-rule="evenodd">
        <g id="Artboard" transform="translate(-1037.000000, -76.000000)" fill-rule="nonzero" fill="#FFFFFF">
            <path d="M1073.81818,81.1207951 L1073.81818,115.879201 C1073.81818,116.451929 1074.27636,116.909088 1074.84295,116.909088 L1076.88431,116.909088 C1077.45295,116.909088 1077.90909,116.450906 1077.90909,115.879201 L1077.90909,81.1207951 C1077.90909,80.5480679 1077.45091,80.0909088 1076.88431,80.0909088 L1074.84295,80.0909088 C1074.27432,80.0909088 1073.81818,80.5490906 1073.81818,81.1207951 Z M1069.72727,81.1207951 C1069.72564,79.7630632 1070.26393,78.4603976 1071.22351,77.499856 C1072.18309,76.5393143 1073.48522,75.9997276 1074.84295,76.0000001 L1076.88431,76.0000001 C1078.24196,75.9999994 1079.54393,76.5396734 1080.50346,77.500156 C1081.46298,78.4606386 1082.00135,79.7631463 1082,81.1207951 L1082,115.879201 C1082.00163,117.236933 1081.46334,118.539599 1080.50376,119.50014 C1079.54417,120.460682 1078.24205,121.000269 1076.88431,120.999996 L1074.84295,120.999996 C1073.4853,120.999997 1072.18333,120.460323 1071.22381,119.49984 C1070.26429,118.539358 1069.72591,117.23685 1069.72727,115.879201 L1069.72727,81.1207951 Z M1037,93.3832941 C1036.99973,92.0269174 1037.53878,90.726091 1038.49836,89.7674675 C1039.45794,88.8088441 1040.75931,88.2710974 1042.11568,88.2727263 L1044.15704,88.2727263 C1046.97926,88.2744134 1049.26765,90.5600566 1049.27273,93.3822714 L1049.27273,115.890451 C1049.27273,117.246651 1048.73356,118.547214 1047.77401,119.505616 C1046.81445,120.464019 1045.51324,121.001625 1044.15704,120.999996 L1042.11568,120.999996 C1039.29346,120.998309 1037.00507,118.712666 1037,115.890451 L1037,93.3822714 L1037,93.3832941 Z M1041.09091,93.3832941 L1041.09091,115.890451 C1041.09091,116.446815 1041.55318,116.909088 1042.11568,116.909088 L1044.15704,116.909088 C1044.42827,116.910721 1044.68894,116.804123 1044.8813,116.612914 C1045.07366,116.421705 1045.18182,116.161677 1045.18182,115.890451 L1045.18182,93.3822714 C1045.18182,92.8259078 1044.71954,92.3636351 1044.15704,92.3636351 L1042.11568,92.3636351 C1041.84446,92.3620012 1041.58379,92.4685998 1041.39143,92.6598085 C1041.19907,92.8510172 1041.0909,93.1110457 1041.09091,93.3822714 L1041.09091,93.3832941 Z M1053.36364,105.668293 C1053.36173,104.31029 1053.89987,103.007257 1054.85945,102.046331 C1055.81903,101.085406 1057.12131,100.545451 1058.47932,100.545453 L1060.52068,100.545453 C1061.87911,100.544634 1063.18202,101.084467 1064.14181,102.045791 C1065.1016,103.007115 1065.63935,104.310886 1065.63636,105.669316 L1065.63636,115.876133 C1065.63853,117.234313 1065.10052,118.53761 1064.14091,119.498756 C1063.1813,120.459903 1061.87886,120.999998 1060.52068,120.999996 L1058.47932,120.999996 C1057.12088,121.000815 1055.81797,120.460982 1054.85818,119.499658 C1053.8984,118.538334 1053.36065,117.234562 1053.36364,115.876133 L1053.36364,105.669316 L1053.36364,105.668293 Z M1057.45454,105.668293 L1057.45454,115.877156 C1057.45181,116.150429 1057.55866,116.413408 1057.75123,116.607323 C1057.9438,116.801237 1058.20603,116.909922 1058.47932,116.909088 L1060.52068,116.909088 C1061.08829,116.909088 1061.54545,116.449883 1061.54545,115.876133 L1061.54545,105.669316 C1061.54847,105.395866 1061.44173,105.132622 1061.24913,104.938485 C1061.05653,104.744348 1060.79414,104.635524 1060.52068,104.636361 L1058.47932,104.636361 C1057.9117,104.636361 1057.45454,105.095566 1057.45454,105.669316 L1057.45454,105.668293 Z" id="icon-chart"></path>
        </g>
    </g>
</svg>
