<?xml version="1.0" encoding="UTF-8" standalone="no"?>
<svg width="45px" height="45px" viewBox="0 0 45 45" version="1.1" xmlns="http://www.w3.org/2000/svg" xmlns:xlink="http://www.w3.org/1999/xlink">
    <!-- Generator: Sketch 47.1 (45422) - http://www.bohemiancoding.com/sketch -->
    <title>icon-note</title>
    <desc>Created with Sketch.</desc>
    <defs></defs>
    <g id="Design" stroke="none" stroke-width="1" fill="none" fill-rule="evenodd">
        <g id="Artboard" transform="translate(-930.000000, -76.000000)" fill-rule="nonzero" fill="#FFFFFF">
            <path d="M930,84.9876528 C930,82.5088317 931.972776,80.4993501 934.407132,80.4993501 L946.541486,80.4993501 C947.151093,80.4993501 948.002063,80.8632551 948.428228,81.2979248 L955.684966,88.6994759 C956.117378,89.1405164 956.467916,89.9927687 956.467916,90.6189902 L956.467916,116.497707 C956.467916,118.980666 954.500144,120.993501 952.067567,120.993501 L934.40035,120.993501 C931.970104,120.993501 930,118.98539 930,116.505199 L930,84.9876528 Z M952.073049,91.7477224 C952.073163,91.5078863 952.073226,91.3787034 952.073226,91.3787034 L945.798522,84.9987003 L945.439618,84.9987003 L945.439618,91.7477255 L952.073049,91.7477255 L952.073049,91.7477224 Z M952.071002,96.2470757 L943.240419,96.2470757 C942.018699,96.2470757 941.028298,95.2485241 941.028298,93.9974006 L941.028298,92.872563 L941.028298,84.9987003 L934.407132,84.9987003 C934.407774,84.9987003 934.411319,116.505199 934.411319,116.505199 C934.411319,116.499814 952.067567,116.494151 952.067567,116.494151 C952.062847,116.494151 952.067821,103.550076 952.071002,96.2470757 Z M965.285952,76 L969.706477,76 C972.14024,76 974.113194,78.0123653 974.113194,80.5041394 L974.113194,111.994801 L969.764146,119.402481 C968.511602,121.535924 966.476813,121.529086 965.228283,119.402481 L960.879236,111.994801 L960.879236,80.5041394 C960.879236,78.0165719 962.860493,76 965.285952,76 Z M969.701874,104.120938 L969.701874,87.2531646 C969.701874,87.246294 965.285952,87.2483754 965.285952,87.2483754 C965.291654,87.2483754 965.29252,97.1708198 965.292427,104.120938 L969.701874,104.120938 Z M969.701874,108.620289 L965.292235,108.620289 C965.292141,109.939518 965.292049,110.749508 965.292049,110.749508 L967.496215,114.490858 L969.701874,110.777074 L969.701874,108.620289 Z" id="icon-note"></path>
        </g>
    </g>
</svg>
