<?xml version="1.0" encoding="UTF-8" standalone="no"?>
<svg width="45px" height="45px" viewBox="0 0 45 45" version="1.1" xmlns="http://www.w3.org/2000/svg" xmlns:xlink="http://www.w3.org/1999/xlink">
    <!-- Generator: Sketch 47.1 (45422) - http://www.bohemiancoding.com/sketch -->
    <title>icon-error-mark</title>
    <desc>Created with Sketch.</desc>
    <defs></defs>
    <g id="Design" stroke="none" stroke-width="1" fill="none" fill-rule="evenodd">
        <g id="Artboard" transform="translate(-619.000000, -75.000000)" fill="#FFFFFF">
            <g id="icon-error-mark" transform="translate(619.000000, 75.000000)">
                <g id="Outline_Icons_1_">
                    <g id="Outline_Icons">
                        <g id="Group">
                            <path d="M22.533495,4.80952423 C12.6887302,4.97808787 4.64030308,13.1143909 4.80951888,22.809181 C4.97970506,32.6572876 12.7693054,40.3636583 22.4658667,40.1976324 C32.3133783,40.0258075 40.3580982,31.8922373 40.1904812,22.1943974 C40.0202712,12.3481543 32.2291921,4.64032054 22.533495,4.80952423 Z M22.533495,44.1100913 C10.6547525,44.3134811 1.10422909,34.8650022 0.897065448,22.8771313 C0.689764394,11.0003454 10.4809329,1.1022731 22.4658611,0.89706535 C34.3432423,0.689788036 43.8957311,10.1402113 44.1029402,22.1267691 C44.3082641,34.0062211 34.5216586,43.9009153 22.533495,44.1100913 Z" id="Shape" fill-rule="nonzero"></path>
                            <path d="M24.4565217,25.1795841 L24.4565217,12.6748582 C24.4565217,11.5943011 23.5805571,10.7183365 22.5,10.7183365 C21.4194429,10.7183365 20.5434783,11.5943011 20.5434783,12.6748582 L20.5434783,25.1795841 C20.5434783,26.2601412 21.4194429,27.1361059 22.5,27.1361059 C23.5805571,27.1361059 24.4565217,26.2601412 24.4565217,25.1795841 Z" id="Shape" fill-rule="nonzero"></path>
                            <path d="M24.968768,31.4781787 C24.968768,32.8154188 23.8834717,33.900715 22.5462316,33.900715 L22.5462316,33.900715 C21.2089915,33.900715 20.1236952,32.8154188 20.1236952,31.4781787 L20.1236952,31.4781787 C20.1236952,30.1409386 21.2089915,29.0556423 22.5462316,29.0556423 L22.5462316,29.0556423 C23.8834717,29.0556423 24.968768,30.1409386 24.968768,31.4781787 L24.968768,31.4781787 Z" id="Shape"></path>
                        </g>
                    </g>
                </g>
            </g>
        </g>
    </g>
</svg>
