<svg width="14px" height="14px" viewBox="0 0 14 14" version="1.1" xmlns="http://www.w3.org/2000/svg" xmlns:xlink="http://www.w3.org/1999/xlink">
    <!-- Generator: Sketch 47.1 (45422) - http://www.bohemiancoding.com/sketch -->
    <desc>Created with Sketch.</desc>
    <defs></defs>
    <g id="Design" stroke="none" stroke-width="1" fill="none" fill-rule="evenodd">
        <g id="Artboard" transform="translate(-103.000000, -26.000000)" fill-rule="nonzero" fill="#FFFFFF">
            <g id="ui-37" transform="translate(103.000000, 26.000000)">
                <path d="M9.82524581,8.79354149 L13.7871213,12.7555781 C14.0708569,13.0393252 14.0718221,13.4984051 13.7848392,13.7853997 C13.4998432,14.0704073 13.0392586,14.0718926 12.7550595,13.7876819 L8.79318396,9.8256453 C7.87235099,10.5292002 6.72164528,10.9471142 5.47333454,10.9471142 C2.45049536,10.9471142 0,8.49651917 0,5.47355708 C0,2.450595 2.45049536,0 5.47333454,0 C8.49617371,0 10.9466691,2.450595 10.9466691,5.47355708 C10.9466691,6.72191858 10.5287721,7.87267108 9.82524581,8.79354149 Z M5.47333454,9.48749894 C7.69008326,9.48749894 9.4871132,7.69039594 9.4871132,5.47355708 C9.4871132,3.25671822 7.69008326,1.45961522 5.47333454,1.45961522 C3.25658581,1.45961522 1.45955588,3.25671822 1.45955588,5.47355708 C1.45955588,7.69039594 3.25658581,9.48749894 5.47333454,9.48749894 Z" id="Combined-Shape"></path>
            </g>
        </g>
    </g>
</svg>
