<?xml version="1.0" encoding="UTF-8" standalone="no"?>
<svg width="53px" height="45px" viewBox="0 0 53 45" version="1.1" xmlns="http://www.w3.org/2000/svg" xmlns:xlink="http://www.w3.org/1999/xlink">
    <!-- Generator: Sketch 47.1 (45422) - http://www.bohemiancoding.com/sketch -->
    <title>icon-random</title>
    <desc>Created with Sketch.</desc>
    <defs></defs>
    <g id="Design" stroke="none" stroke-width="1" fill="none" fill-rule="evenodd">
        <g id="Artboard" transform="translate(-504.000000, -76.000000)" fill-rule="nonzero" fill="#FFFFFF">
            <path d="M544.753744,88.5 C542.045425,88.5 535.274629,95 530.309379,99.6875 C522.829261,106.6875 515.736046,113.5 510.061475,113.5 L506.579351,113.5 C505.160708,113.5 504,112.375 504,111 C504,109.625 505.160708,108.5 506.579351,108.5 L510.061475,108.5 C513.672566,108.5 520.894748,101.5 526.698288,96.0625 C533.791502,89.4375 539.917461,83.5 544.753744,83.5 L548.1069,83.5 L544.560292,80.1875 C543.528552,79.1875 543.528552,77.75 544.560292,76.75 C545.592033,75.75 547.204127,75.75 548.235867,76.75 L556.167371,84.4375 C556.683241,84.9375 556.941176,85.5625 556.941176,86.1875 C556.941176,86.875 556.683241,87.5 556.167371,87.9375 L548.171384,95.625 C547.655513,96.125 547.010676,96.3125 546.365838,96.3125 C545.721,96.3125 545.076162,96.0625 544.560292,95.5625 C543.528552,94.5625 543.528552,92.9375 544.560292,92 L548.1069,88.5 L544.753744,88.5 Z M548.171384,101.375 C547.139643,100.375 545.527549,100.375 544.495809,101.375 C543.464068,102.375 543.464068,104 544.495809,105 L548.042416,108.5 L544.68926,108.5 C542.561295,108.5 539.014688,105.4375 535.532564,102.3125 C534.500824,101.375 532.88873,101.375 531.856989,102.375 C530.889733,103.375 530.954217,105.0625 531.985957,106 C537.402594,110.8125 541.013685,113.5 544.753744,113.5 L548.1069,113.5 L544.560292,116.8125 C543.528552,117.8125 543.528552,119.3125 544.560292,120.3125 C545.076162,120.8125 545.721,121 546.365838,121 C547.010676,121 547.655513,120.75 548.171384,120.25 L556.102887,112.5625 C556.618758,112.0625 556.876693,111.4375 556.876693,110.8125 C556.876693,110.125 556.618758,109.5 556.102887,109.0625 L548.171384,101.375 Z M506.579351,88.5 L510.061475,88.5 C512.769793,88.5 516.832271,91.875 520.056459,94.6875 C520.572329,95.125 521.152683,95.375 521.797521,95.375 C522.506842,95.375 523.216164,95.125 523.732034,94.5625 C524.699291,93.5625 524.634807,91.875 523.538583,90.9375 C518.508849,86.5 514.25292,83.4375 510.061475,83.4375 L506.579351,83.4375 C505.160708,83.4375 504,84.5625 504,85.9375 C504,87.3125 505.160708,88.5 506.579351,88.5 Z" id="icon-random"></path>
        </g>
    </g>
</svg>
