<?xml version="1.0" encoding="UTF-8" standalone="no"?>
<svg width="45px" height="45px" viewBox="0 0 45 45" version="1.1" xmlns="http://www.w3.org/2000/svg" xmlns:xlink="http://www.w3.org/1999/xlink">
    <!-- Generator: Sketch 47.1 (45422) - http://www.bohemiancoding.com/sketch -->
    <title>icon-settings</title>
    <desc>Created with Sketch.</desc>
    <defs></defs>
    <g id="Design" stroke="none" stroke-width="1" fill="none" fill-rule="evenodd">
        <g id="Artboard" transform="translate(-1144.000000, -76.000000)" fill-rule="nonzero" fill="#FFFFFF">
            <path d="M1175.70455,98.5 L1175.70455,109.75 C1175.70455,110.879673 1174.78876,111.795454 1173.65909,111.795454 C1172.52942,111.795454 1171.61364,110.879673 1171.61364,109.75 L1171.61364,98.5 C1168.79091,98.5 1166.5,96.2060228 1166.5,93.3863638 L1166.5,89.2954549 C1166.5,86.4727278 1168.79398,84.1818188 1171.61364,84.1818188 L1175.70455,84.1818188 C1178.52727,84.1818188 1180.81818,86.4757959 1180.81818,89.2954549 L1180.81818,93.3863638 C1180.81818,96.209091 1178.5242,98.5 1175.70455,98.5 Z M1161.38636,98.5 C1164.20909,98.5 1166.5,100.793977 1166.5,103.613636 L1166.5,107.704545 C1166.5,110.527272 1164.20602,112.818181 1161.38636,112.818181 L1157.29545,112.818181 C1154.47273,112.818181 1152.18182,110.524204 1152.18182,107.704545 L1152.18182,103.613636 C1152.18182,100.790909 1154.4758,98.5 1157.29545,98.5 L1157.29545,87.2500005 C1157.29545,86.1203272 1158.21124,85.204546 1159.34091,85.204546 C1160.47058,85.204546 1161.38636,86.1203272 1161.38636,87.2500005 L1161.38636,98.5 Z M1144,81.1207962 C1143.99919,79.7624273 1144.53844,78.4594596 1145.49895,77.4989476 C1146.45946,76.5384355 1147.76243,75.9991863 1149.1208,76.0000009 L1183.8792,76.0000009 C1185.23757,75.9991863 1186.54054,76.5384355 1187.50105,77.4989476 C1188.46156,78.4594596 1189.00081,79.7624273 1189,81.1207962 L1189,115.879204 C1189.00081,117.237573 1188.46156,118.54054 1187.50105,119.501052 C1186.54054,120.461564 1185.23757,121.000814 1183.8792,120.999999 L1149.1208,120.999999 C1147.76243,121.000814 1146.45946,120.461564 1145.49895,119.501052 C1144.53844,118.54054 1143.99919,117.237573 1144,115.879204 L1144,81.1207962 Z M1148.09091,81.1207962 L1148.09091,115.879204 C1148.09091,116.449886 1148.55011,116.90909 1149.1208,116.90909 L1183.8792,116.90909 C1184.44989,116.90909 1184.90909,116.449886 1184.90909,115.879204 L1184.90909,81.1207962 C1184.90909,80.5501144 1184.44989,80.0909098 1183.8792,80.0909098 L1149.1208,80.0909098 C1148.55011,80.0909098 1148.09091,80.5501144 1148.09091,81.1207962 Z M1156.27273,103.613636 L1156.27273,107.704545 C1156.27273,108.267045 1156.73295,108.727272 1157.29545,108.727272 L1161.38636,108.727272 C1161.94886,108.727272 1162.40909,108.267045 1162.40909,107.704545 L1162.40909,103.613636 C1162.40909,103.051136 1161.94886,102.590909 1161.38636,102.590909 L1157.29545,102.590909 C1156.73295,102.590909 1156.27273,103.051136 1156.27273,103.613636 Z M1170.59091,89.2954549 L1170.59091,93.3863638 C1170.59091,93.9488638 1171.05114,94.4090911 1171.61364,94.4090911 L1175.70455,94.4090911 C1176.26705,94.4090911 1176.72727,93.9488638 1176.72727,93.3863638 L1176.72727,89.2954549 C1176.72727,88.7329549 1176.26705,88.2727277 1175.70455,88.2727277 L1171.61364,88.2727277 C1171.05114,88.2727277 1170.59091,88.7329549 1170.59091,89.2954549 Z" id="icon-settings"></path>
        </g>
    </g>
</svg>
