<?xml version="1.0" encoding="UTF-8" standalone="no"?>
<svg width="46px" height="45px" viewBox="0 0 46 45" version="1.1" xmlns="http://www.w3.org/2000/svg" xmlns:xlink="http://www.w3.org/1999/xlink">
    <!-- Generator: Sketch 47.1 (45422) - http://www.bohemiancoding.com/sketch -->
    <title>icon-split</title>
    <desc>Created with Sketch.</desc>
    <defs></defs>
    <g id="Design" stroke="none" stroke-width="1" fill="none" fill-rule="evenodd">
        <g id="Artboard" transform="translate(-822.000000, -76.000000)" fill-rule="nonzero" fill="#FFFFFF">
            <path d="M847.093945,94.0138806 L859.532931,98.576712 C861.966986,99.4716857 863.822849,102.092169 863.822849,104.633894 L863.822849,109.077054 C866.703455,110.073362 868.431395,112.954932 867.91473,115.90081 C867.398065,118.846689 864.78708,121 861.731736,121 C858.676392,121 856.065407,118.846689 855.548742,115.90081 C855.032077,112.954932 856.760017,110.073362 859.640623,109.077054 L859.640623,104.633894 C859.640623,103.797221 858.865866,102.701773 858.063924,102.408222 L847.093945,98.3833977 L847.093945,109.077054 C849.974551,110.073362 851.70249,112.954932 851.185826,115.90081 C850.669161,118.846689 848.058176,121 845.002832,121 C841.947488,121 839.336502,118.846689 838.819838,115.90081 C838.303173,112.954932 840.031113,110.073362 842.911719,109.077054 L842.911719,98.3833977 L831.94174,102.408222 C831.136661,102.702796 830.36504,103.79313 830.36504,104.633894 L830.36504,109.077054 C833.245646,110.073362 834.973586,112.954932 834.456921,115.90081 C833.940257,118.846689 831.329271,121 828.273927,121 C825.218584,121 822.607598,118.846689 822.090933,115.90081 C821.574269,112.954932 823.302209,110.073362 826.182814,109.077054 L826.182814,104.633894 C826.182814,102.088077 828.036586,99.4706629 830.472733,98.576712 L842.911719,94.0138806 L842.911719,87.9229456 C840.031113,86.9266379 838.303173,84.0450683 838.819838,81.0991897 C839.336502,78.1533112 841.947488,76 845.002832,76 C848.058176,76 850.669161,78.1533112 851.185826,81.0991897 C851.70249,84.0450683 849.974551,86.9266379 847.093945,87.9229456 L847.093945,94.0138806 Z M845.002832,84.1804215 C846.157722,84.1804215 847.093945,83.264551 847.093945,82.1347675 C847.093945,81.0049839 846.157722,80.0891134 845.002832,80.0891134 C843.847942,80.0891134 842.911719,81.0049839 842.911719,82.1347675 C842.911719,83.264551 843.847942,84.1804215 845.002832,84.1804215 Z M845.002832,116.910887 C846.157722,116.910887 847.093945,115.995016 847.093945,114.865233 C847.093945,113.735449 846.157722,112.819578 845.002832,112.819578 C843.847942,112.819578 842.911719,113.735449 842.911719,114.865233 C842.911719,115.995016 843.847942,116.910887 845.002832,116.910887 Z M861.731736,116.910887 C862.886626,116.910887 863.822849,115.995016 863.822849,114.865233 C863.822849,113.735449 862.886626,112.819578 861.731736,112.819578 C860.576846,112.819578 859.640623,113.735449 859.640623,114.865233 C859.640623,115.995016 860.576846,116.910887 861.731736,116.910887 Z M828.273927,116.910887 C829.428817,116.910887 830.36504,115.995016 830.36504,114.865233 C830.36504,113.735449 829.428817,112.819578 828.273927,112.819578 C827.119038,112.819578 826.182814,113.735449 826.182814,114.865233 C826.182814,115.995016 827.119038,116.910887 828.273927,116.910887 Z" id="icon-split"></path>
        </g>
    </g>
</svg>
