<?xml version="1.0" encoding="UTF-8" standalone="no"?>
<svg width="45px" height="45px" viewBox="0 0 45 45" version="1.1" xmlns="http://www.w3.org/2000/svg" xmlns:xlink="http://www.w3.org/1999/xlink">
    <!-- Generator: Sketch 47.1 (45422) - http://www.bohemiancoding.com/sketch -->
    <title>icon-check-mark</title>
    <desc>Created with Sketch.</desc>
    <defs></defs>
    <g id="Design" stroke="none" stroke-width="1" fill="none" fill-rule="evenodd">
        <g id="Artboard" transform="translate(-282.000000, -76.000000)" fill-rule="nonzero" fill="#FFFFFF">
            <g id="icon-check-mark" transform="translate(282.000000, 76.000000)">
                <path d="M22.5,45 C34.9264069,45 45,34.9264069 45,22.5 C45,10.0735931 34.9264069,0 22.5,0 C10.0735931,0 0,10.0735931 0,22.5 C0,34.9264069 10.0735931,45 22.5,45 Z M22.5,40.5 C12.5588745,40.5 4.5,32.4411255 4.5,22.5 C4.5,12.5588745 12.5588745,4.5 22.5,4.5 C32.4411255,4.5 40.5,12.5588745 40.5,22.5 C40.5,32.4411255 32.4411255,40.5 22.5,40.5 Z M17.5340097,30.8409903 C18.4126894,31.7196699 19.8373106,31.7196699 20.7159903,30.8409903 L33.0909903,18.4659903 C33.9696699,17.5873106 33.9696699,16.1626894 33.0909903,15.2840097 C32.2123106,14.4053301 30.7876894,14.4053301 29.9090097,15.2840097 L19.125,26.0997065 L13.9659903,20.9090097 C13.0873106,20.0303301 11.6626894,20.0303301 10.7840097,20.9090097 C9.90533014,21.7876894 9.90533014,23.2123106 10.7840097,24.0909903 L17.5340097,30.8409903 Z" id="Combined-Shape"></path>
            </g>
        </g>
    </g>
</svg>
