<?xml version="1.0" encoding="UTF-8" standalone="no"?>
<svg width="27px" height="45px" viewBox="0 0 27 45" version="1.1" xmlns="http://www.w3.org/2000/svg" xmlns:xlink="http://www.w3.org/1999/xlink">
    <!-- Generator: Sketch 47.1 (45422) - http://www.bohemiancoding.com/sketch -->
    <title>icon-thunder</title>
    <desc>Created with Sketch.</desc>
    <defs></defs>
    <g id="Design" stroke="none" stroke-width="1" fill="none" fill-rule="evenodd">
        <g id="Artboard" transform="translate(-1213.000000, -76.000000)" fill-rule="nonzero" fill="#FFFFFF">
            <path d="M1222.68479,102.735817 L1214.2847,99.3759883 C1213.65595,99.1243303 1213.19263,98.5776154 1213.04751,97.9160946 C1212.9024,97.2545739 1213.09432,96.5641213 1213.55999,96.0723778 L1231.95881,76.6514005 C1233.47672,75.0486588 1236.1057,76.6565113 1235.37077,78.7366002 L1229.89099,94.2631605 L1238.29108,97.6240117 C1238.91983,97.8756697 1239.38315,98.4223846 1239.52827,99.0839054 C1239.67338,99.7454261 1239.48146,100.435879 1239.01578,100.927622 L1220.61696,120.348599 C1219.09906,121.951341 1216.47007,120.343489 1217.205,118.2634 L1222.68479,102.73684 L1222.68479,102.735817 Z M1218.59923,96.6979377 L1226.0252,99.6683251 C1227.0432,100.075558 1227.55867,101.21338 1227.19352,102.247226 L1224.25993,110.558383 L1233.97655,100.302062 L1226.55058,97.3316749 C1225.53258,96.9244418 1225.01711,95.7866202 1225.38226,94.7527735 L1228.31585,86.4416174 L1218.59923,96.6979377 Z" id="icon-thunder"></path>
        </g>
    </g>
</svg>
