<svg width="16px" height="15px" viewBox="0 0 16 15" version="1.1" xmlns="http://www.w3.org/2000/svg" xmlns:xlink="http://www.w3.org/1999/xlink">
    <!-- Generator: Sketch 47.1 (45422) - http://www.bohemiancoding.com/sketch -->
    <desc>Created with Sketch.</desc>
    <defs></defs>
    <g id="Design" stroke="none" stroke-width="1" fill="none" fill-rule="evenodd">
        <g id="Artboard" transform="translate(-195.000000, -26.000000)" fill-rule="nonzero" fill="#FFFFFF">
            <path d="M199.853824,28.0391399 L197.063253,33.0734637 L200.189475,38.1476515 L206.149276,38.1099281 L208.939847,33.0756043 L205.813625,28.0014165 L199.853824,28.0391399 Z M210.765316,32.2256751 C211.068494,32.7177658 211.082705,33.335116 210.802491,33.840636 L207.78511,39.284135 C207.504896,39.7896549 206.973823,40.1047491 206.395846,40.1084075 L199.977093,40.1490358 C199.418178,40.1525736 198.89793,39.8641951 198.60475,39.3883334 L195.237784,33.9233929 C194.934606,33.4313022 194.920395,32.813952 195.200609,32.308432 L198.21799,26.8649331 C198.498204,26.3594131 199.029277,26.0443189 199.607254,26.0406605 L206.026006,26.0000322 C206.584922,25.9964945 207.10517,26.2848729 207.39835,26.7607346 L210.765316,32.2256751 Z" id="Combined-Shape-Copy-4"></path>
        </g>
    </g>
</svg>
