<?xml version="1.0" encoding="UTF-8" standalone="no"?>
<svg width="53px" height="45px" viewBox="0 0 53 45" version="1.1" xmlns="http://www.w3.org/2000/svg" xmlns:xlink="http://www.w3.org/1999/xlink">
    <!-- Generator: Sketch 47.1 (45422) - http://www.bohemiancoding.com/sketch -->
    <title>icon-backup</title>
    <desc>Created with Sketch.</desc>
    <defs></defs>
    <g id="Design" stroke="none" stroke-width="1" fill="none" fill-rule="evenodd">
        <g id="Artboard" transform="translate(-389.000000, -79.000000)" fill-rule="nonzero" fill="#FFFFFF">
            <g id="icon-backup" transform="translate(389.000000, 79.000000)">
                <path d="M30,0 C17.575,0 7.5,10.075 7.5,22.5 L0,22.5 L9.725,32.225 L9.9,32.575 L20,22.5 L12.5,22.5 C12.5,12.825 20.325,5 30,5 C39.675,5 47.5,12.825 47.5,22.5 C47.5,32.175 39.675,40 30,40 C25.175,40 20.8,38.025 17.65,34.85 L14.1,38.4 C18.175,42.475 23.775,45 30,45 C42.425,45 52.5,34.925 52.5,22.5 C52.5,10.075 42.425,0 30,0 Z M27.5,12.5 L27.5,25 L38.2,31.35 L40,28.325 L31.25,23.125 L31.25,12.5 L27.5,12.5 Z" id="Shape"></path>
            </g>
        </g>
    </g>
</svg>
